<svg xmlns="http://www.w3.org/2000/svg" xmlns:xlink="http://www.w3.org/1999/xlink" version="1.1" x="0px" y="0px" viewBox="0 0 100 100" enable-background="new 0 0 100 100" xml:space="preserve"><path fill-rule="evenodd" clip-rule="evenodd" d="M5.45,72.795c-0.167-0.367-0.183-0.717-0.05-1.05  c0.133-0.367,0.367-0.65,0.7-0.851l18.8-10.649c-2-4.801-2.55-9.7-1.65-14.7l-12.55-5.7c-0.333-0.134-0.566-0.366-0.7-0.7  c-0.167-0.333-0.217-0.684-0.15-1.05c0.233-0.8,0.767-1.167,1.6-1.1l14.2,1.149l1.3-2.399c0.233-0.367,0.55-0.601,0.95-0.7  c0.4-0.101,0.767-0.033,1.1,0.2c0.367,0.233,0.6,0.55,0.7,0.949c0.1,0.4,0.034,0.767-0.2,1.101l-0.75,1.35  c-0.233,0.4-0.5,0.95-0.8,1.65c-0.267,0.666-0.767,0.967-1.5,0.899l-6.65-0.55l5.8,2.65c0.733,0.333,1.017,0.899,0.85,1.7  c-1.2,5.199-0.617,10.283,1.75,15.25c0.167,0.366,0.184,0.733,0.05,1.1s-0.367,0.65-0.7,0.85L19,67.045l10.1-3  c0.667-0.233,1.2-0.066,1.6,0.5c0.333,0.467,0.9,1.133,1.7,2c0.267,0.333,0.4,0.7,0.4,1.1c-0.033,0.434-0.2,0.783-0.5,1.05  c-0.333,0.267-0.7,0.4-1.1,0.4c-0.433-0.033-0.783-0.2-1.05-0.5l-1.15-1.4l-21.75,6.45l-0.45,0.05  C6.167,73.694,5.717,73.395,5.45,72.795z M93.75,26.045c0.367,0.166,0.633,0.416,0.8,0.75c0.167,0.366,0.184,0.733,0.05,1.1  c-0.1,0.367-0.317,0.634-0.65,0.8l-19.3,11.2c1.067,2.667,1.7,5.267,1.9,7.8c0.2,1.967,0.133,4.067-0.2,6.301l12.05,6.35  c0.333,0.167,0.567,0.417,0.7,0.75c0.167,0.366,0.183,0.717,0.05,1.05c-0.133,0.334-0.35,0.601-0.65,0.8c-0.3,0.2-0.633,0.267-1,0.2  l-13.3-2.05l-0.7,1.65c-0.267,0.6-0.733,0.899-1.4,0.899c-0.2,0-0.4-0.05-0.6-0.149c-0.367-0.167-0.633-0.45-0.8-0.851  c-0.133-0.399-0.117-0.783,0.05-1.149l1.15-2.601c0.267-0.733,0.8-1.05,1.6-0.95l5.5,0.851l-5-2.65c-0.7-0.333-0.967-0.866-0.8-1.6  c0.434-2.066,0.567-4.267,0.4-6.601c-0.267-2.733-1.017-5.416-2.25-8.05c-0.167-0.366-0.184-0.733-0.05-1.1  c0.1-0.367,0.317-0.634,0.65-0.8L79,33.895l-8.1,2.8c-0.767,0.267-1.333,0.067-1.7-0.6c-2-2.866-4.5-5.116-7.5-6.75  c-0.667-0.4-0.917-0.967-0.75-1.7l1.6-6.1l-3.45,5.3c-0.4,0.634-1,0.833-1.8,0.6c-2.967-1.033-5.9-1.483-8.8-1.35  c-1.533,0.134-2.85,0.333-3.95,0.6c-0.3,0.067-0.6,0.034-0.9-0.1s-0.533-0.333-0.7-0.6l-5.3-8.9l2.7,9.6  c0.233,0.834-0.034,1.434-0.8,1.801c-2.3,1.066-4.267,2.366-5.9,3.899c-0.333,0.267-0.7,0.4-1.1,0.4  c-0.433-0.033-0.783-0.2-1.05-0.5c-0.267-0.334-0.4-0.7-0.4-1.101c0.033-0.433,0.2-0.783,0.5-1.05c1.733-1.533,3.583-2.8,5.55-3.8  l-5.5-19.4c-0.1-0.366-0.067-0.716,0.1-1.05c0.167-0.333,0.417-0.583,0.75-0.75c0.333-0.166,0.683-0.184,1.05-0.05  c0.367,0.1,0.633,0.316,0.8,0.65l10.6,17.8c0.967-0.2,2.1-0.334,3.4-0.4c3-0.2,5.95,0.167,8.85,1.101l7.8-12  c0.2-0.301,0.483-0.5,0.85-0.601c0.367-0.1,0.716-0.083,1.05,0.05c0.333,0.167,0.583,0.417,0.75,0.75c0.133,0.301,0.167,0.634,0.1,1  l-3.6,13.851c2.767,1.7,5.05,3.767,6.85,6.2l21.7-7.5C93.066,25.861,93.417,25.878,93.75,26.045z M45.05,41.245h-7.9  c-0.433,0-0.783-0.15-1.05-0.45c-0.3-0.267-0.45-0.617-0.45-1.05c0-0.4,0.15-0.75,0.45-1.051c0.267-0.3,0.617-0.449,1.05-0.449h7.9  c0.434,0,0.783,0.149,1.05,0.449c0.3,0.301,0.45,0.65,0.45,1.051c0,0.433-0.15,0.783-0.45,1.05  C45.833,41.095,45.483,41.245,45.05,41.245z M49.95,61.595c0.3,0.267,0.45,0.616,0.45,1.05c0,0.4-0.15,0.75-0.45,1.05  c-0.3,0.301-0.65,0.45-1.05,0.45h-8c-0.433,0-0.783-0.149-1.05-0.45c-0.3-0.3-0.45-0.649-0.45-1.05c0-0.434,0.15-0.783,0.45-1.05  c0.267-0.3,0.617-0.45,1.05-0.45h8C49.3,61.145,49.65,61.295,49.95,61.595z M67.95,48.045c0.3,0.267,0.45,0.616,0.45,1.05  c0,0.4-0.15,0.75-0.45,1.05c-0.3,0.3-0.65,0.45-1.05,0.45h-8c-0.4,0-0.75-0.15-1.05-0.45c-0.3-0.3-0.45-0.649-0.45-1.05  c0-0.434,0.15-0.783,0.45-1.05c0.3-0.3,0.65-0.45,1.05-0.45h8C67.3,47.595,67.65,47.745,67.95,48.045z M67.5,70.245l8.3,22.75  c0.267,0.833,0.017,1.449-0.75,1.85c-0.2,0.1-0.417,0.15-0.65,0.15c-0.6,0-1.017-0.217-1.25-0.65l-13.1-19.45  c-1.6,0.634-3.1,1.117-4.5,1.45c-2.533,0.667-5.133,0.866-7.8,0.6L39.5,91.995c-0.167,0.333-0.417,0.566-0.75,0.699  c-0.367,0.134-0.717,0.134-1.05,0c-0.333-0.133-0.6-0.35-0.8-0.649c-0.167-0.3-0.233-0.634-0.2-1l2.5-16.3l-0.95-0.4  c-0.367-0.167-0.633-0.45-0.8-0.85c-0.133-0.4-0.117-0.784,0.05-1.15c0.167-0.366,0.45-0.634,0.85-0.8  c0.4-0.134,0.783-0.117,1.15,0.05c0.733,0.366,1.367,0.634,1.9,0.8c0.733,0.334,1.05,0.884,0.95,1.65l-1.4,9.05l4.65-8.5  c0.333-0.6,0.85-0.85,1.55-0.75c2.6,0.333,5.167,0.184,7.7-0.45c1.6-0.333,3.316-0.916,5.15-1.75c0.333-0.133,0.667-0.149,1-0.05  c0.367,0.1,0.65,0.3,0.85,0.6l6.9,10.25l-4.4-12.1c-0.233-0.667-0.067-1.233,0.5-1.7l0.45-0.35c0.367-0.233,0.75-0.334,1.15-0.3  c0.4,0.033,0.717,0.216,0.95,0.55C67.833,69.078,67.867,69.645,67.5,70.245z"></path></svg>