<svg xmlns="http://www.w3.org/2000/svg" xmlns:xlink="http://www.w3.org/1999/xlink" version="1.1" x="0px" y="0px" viewBox="0 0 100 100" enable-background="new 0 0 100 100" xml:space="preserve"><path fill-rule="evenodd" clip-rule="evenodd" d="M25.903,37.05c0.467-7.834,3.333-14.7,8.6-20.601l1.3-1.399  c1.767-1.733,3.6-3.217,5.5-4.45c0.333-0.233,0.7-0.316,1.1-0.25s0.717,0.283,0.95,0.65c0.233,0.333,0.316,0.699,0.25,1.1  c-0.067,0.4-0.284,0.717-0.65,0.95c-1.8,1.233-3.466,2.616-5,4.149l-0.2,0.15l3.65,3.2c0.333,0.267,0.517,0.616,0.55,1.05  c0,0.4-0.133,0.75-0.4,1.05c-0.267,0.334-0.617,0.517-1.05,0.55c-0.4,0-0.75-0.133-1.05-0.399l-3.7-3.2  c-3.9,4.7-6.15,10.116-6.75,16.25l3.45,0.35c0.4,0.034,0.733,0.217,1,0.551c0.267,0.3,0.367,0.666,0.3,1.1  c-0.033,0.4-0.2,0.733-0.5,1c-0.333,0.267-0.717,0.366-1.15,0.3l-3.3-0.3v0.55c0,3.4,0.434,6.5,1.3,9.3  c0.167,0.467,0.1,0.9-0.2,1.301c-0.3,0.366-0.7,0.583-1.2,0.649c-3.9,0.066-7.433,1.101-10.6,3.101l2.65,3.149  c0.267,0.334,0.383,0.7,0.35,1.101c-0.034,0.399-0.2,0.733-0.5,1c-0.333,0.267-0.7,0.383-1.1,0.35s-0.733-0.2-1-0.5l-2.8-3.3  l-1.2,1.149c-3.467,3.4-5.45,7.5-5.95,12.301c-0.033,0.399-0.183,0.733-0.45,1c-0.3,0.267-0.633,0.399-1,0.399l-0.15-0.05  c-0.433-0.033-0.783-0.2-1.05-0.5c-0.233-0.333-0.333-0.7-0.3-1.1c0.5-5.4,2.75-10.134,6.75-14.2c0.8-0.8,1.7-1.566,2.7-2.3  c3.4-2.601,7.3-4.101,11.7-4.5c-0.633-2.634-0.95-5.417-0.95-8.351C25.803,38.333,25.836,37.55,25.903,37.05z M24.753,65.649  c1.133-1.166,2.55-1.75,4.25-1.75c1.7,0,3.117,0.566,4.25,1.7c1.1,1.2,1.65,2.616,1.65,4.25s-0.55,3.017-1.65,4.15  c-1.167,1.133-2.583,1.699-4.25,1.699c-1.633,0-3.033-0.55-4.2-1.649c-1.167-1.2-1.75-2.601-1.75-4.2S23.62,66.85,24.753,65.649z   M26.053,69.85c0,0.767,0.283,1.467,0.85,2.1c0.567,0.5,1.267,0.75,2.1,0.75c0.867,0,1.583-0.267,2.15-0.8  c0.5-0.533,0.75-1.217,0.75-2.05c0-0.866-0.267-1.583-0.8-2.15c-0.534-0.533-1.233-0.8-2.1-0.8s-1.567,0.283-2.1,0.851  C26.336,68.316,26.053,69.017,26.053,69.85z M34.853,83.8c0.4,0.133,0.7,0.383,0.9,0.75l2.9,5.25c1.867-1,3.567-2.283,5.1-3.851  c4.033-3.966,6.05-8.833,6.05-14.6V71.1l0.05-0.35l-2.4-2.9c-0.233-0.333-0.333-0.7-0.3-1.1c0.033-0.434,0.2-0.784,0.5-1.051  c0.333-0.233,0.7-0.333,1.1-0.3c0.433,0.033,0.783,0.2,1.05,0.5l3.3,4.05c1.733,0.367,3.45,0.601,5.15,0.7  c0.433,0,0.783,0.15,1.05,0.45s0.383,0.667,0.35,1.1c0,0.434-0.15,0.784-0.45,1.051c-0.3,0.267-0.667,0.383-1.1,0.35  c-1.633-0.033-3.417-0.25-5.35-0.65c-0.333,5.834-2.617,10.884-6.85,15.15c-2.2,2.167-4.617,3.85-7.25,5.05h-0.05  c-2.9,1.233-6.05,1.851-9.45,1.851c-6.6,0-12.2-2.301-16.8-6.9l-1.4-1.6c-2.4-2.801-4.033-5.967-4.9-9.5  c-0.066-0.4,0-0.767,0.2-1.101c0.233-0.366,0.55-0.6,0.95-0.7c0.4-0.1,0.784-0.033,1.15,0.2c0.333,0.233,0.55,0.55,0.65,0.95  c0.6,2.566,1.717,4.934,3.35,7.1l2.4-2.05c0.333-0.233,0.7-0.333,1.1-0.3c0.433,0.033,0.783,0.2,1.05,0.5  c0.233,0.333,0.333,0.7,0.3,1.1c-0.033,0.434-0.2,0.784-0.5,1.051l-2.45,2l0.25,0.199c4,4.034,8.883,6.051,14.65,6.051  c2.467,0,4.7-0.334,6.7-1l-2.75-5c-0.2-0.367-0.25-0.75-0.15-1.15c0.133-0.4,0.383-0.7,0.75-0.9  C34.069,83.75,34.453,83.699,34.853,83.8z M48.703,7.35c0.2-0.367,0.5-0.617,0.9-0.75c2.8-0.9,5.767-1.4,8.9-1.5  C59.169,5.033,59.72,5,60.153,5c9.133,0,16.967,3.116,23.5,9.35h0.05l0.7,0.7c6.667,6.666,10,14.783,10,24.35L94.353,42  c-0.534,8.3-3.85,15.517-9.95,21.649c-1.933,1.934-4.05,3.634-6.35,5.101h-0.05c-3.367,2.1-7,3.533-10.9,4.3l-0.3,0.05  c-0.8,0-1.283-0.417-1.45-1.25c-0.067-0.4,0.017-0.767,0.25-1.1c0.2-0.367,0.517-0.584,0.95-0.65c3.1-0.634,5.983-1.684,8.65-3.15  l-3.2-5.649c-0.2-0.367-0.25-0.733-0.15-1.101c0.133-0.399,0.383-0.716,0.75-0.949c0.367-0.2,0.733-0.25,1.1-0.15  c0.4,0.134,0.717,0.384,0.95,0.75l3.1,5.5c1.5-1.066,3-2.35,4.5-3.85c5.2-5.134,8.2-11.25,9-18.351l-5.8-1  c-0.433-0.066-0.767-0.267-1-0.6c-0.233-0.334-0.316-0.7-0.25-1.101c0.067-0.433,0.267-0.767,0.6-1c0.333-0.233,0.7-0.316,1.1-0.25  l5.5,0.9v-0.7c0-8.533-2.933-15.833-8.8-21.899l-3.1,2.85c-0.3,0.3-0.65,0.45-1.05,0.45c-0.433-0.033-0.783-0.2-1.05-0.5  c-0.3-0.3-0.433-0.65-0.4-1.05c0-0.434,0.15-0.784,0.45-1.051l2.95-2.75C74.736,10.55,67.986,8.066,60.153,8l0.15,3.3  c0.033,0.399-0.083,0.767-0.35,1.1c-0.267,0.3-0.617,0.45-1.05,0.45c-0.433,0.033-0.8-0.083-1.1-0.35  c-0.3-0.267-0.45-0.617-0.45-1.051l-0.2-3.3c-2.467,0.267-4.7,0.7-6.7,1.3c-0.367,0.134-0.733,0.101-1.1-0.1s-0.617-0.5-0.75-0.9  C48.47,8.083,48.503,7.717,48.703,7.35z M77.403,44.6c0,2.434-0.883,4.483-2.65,6.15c-1.667,1.733-3.7,2.6-6.1,2.6  c-2.367,0-4.45-0.866-6.25-2.6c-1.667-1.667-2.5-3.717-2.5-6.15c0-2.4,0.833-4.467,2.5-6.2c1.7-1.666,3.783-2.5,6.25-2.5h0.35  c0.4,0,0.75,0.15,1.05,0.45c0.3,0.267,0.45,0.616,0.45,1.05c0,0.4-0.15,0.75-0.45,1.05c-0.3,0.301-0.65,0.45-1.05,0.45h-0.35  c-1.667,0-3.05,0.533-4.15,1.601c-1.067,1.1-1.6,2.466-1.6,4.1c0,1.6,0.533,2.934,1.6,4c1.233,1.167,2.617,1.75,4.15,1.75  s2.867-0.566,4-1.7c1.167-1.166,1.75-2.517,1.75-4.05c0-1.033-0.25-1.983-0.75-2.85c-0.233-0.334-0.3-0.717-0.2-1.15  c0.1-0.4,0.333-0.7,0.7-0.9c0.333-0.233,0.717-0.3,1.15-0.199c0.4,0.1,0.7,0.333,0.9,0.699C77.003,41.5,77.403,42.966,77.403,44.6z   M62.653,29.949c0-1.333-0.45-2.433-1.35-3.3c-0.867-0.934-1.95-1.399-3.25-1.399c-1.333,0-2.45,0.466-3.35,1.399h-0.05  c-0.9,0.9-1.35,2-1.35,3.3c0,1.301,0.45,2.4,1.35,3.301c0.967,0.966,2.1,1.449,3.4,1.449c1.233,0,2.317-0.466,3.25-1.399  C62.203,32.399,62.653,31.283,62.653,29.949z M63.453,35.399c-1.533,1.533-3.333,2.3-5.4,2.3c-2.133,0-3.967-0.783-5.5-2.35  c-1.5-1.434-2.25-3.233-2.25-5.4c0-2.133,0.75-3.949,2.25-5.449c1.567-1.5,3.4-2.25,5.5-2.25c2.033,0,3.833,0.75,5.4,2.25  c1.467,1.533,2.2,3.35,2.2,5.449C65.653,32.083,64.919,33.899,63.453,35.399z M50.403,39.149c1.733,0,3.167,0.566,4.3,1.7  c1.133,1.233,1.7,2.65,1.7,4.25c0,1.566-0.567,2.95-1.7,4.15c-1.167,1.133-2.6,1.699-4.3,1.699c-1.6,0-2.983-0.55-4.15-1.649  c-1.133-1.167-1.7-2.566-1.7-4.2s0.55-3.033,1.65-4.2C47.336,39.733,48.736,39.149,50.403,39.149z M50.403,47.949  c0.9,0,1.633-0.267,2.2-0.8c0.533-0.6,0.8-1.283,0.8-2.05c0-0.8-0.283-1.517-0.85-2.15c-0.533-0.533-1.25-0.8-2.15-0.8  c-0.833,0-1.517,0.283-2.05,0.851c-0.534,0.533-0.8,1.233-0.8,2.1c0,0.833,0.267,1.533,0.8,2.1  C48.919,47.699,49.603,47.949,50.403,47.949z"></path></svg>