<svg xmlns="http://www.w3.org/2000/svg" xmlns:xlink="http://www.w3.org/1999/xlink" version="1.1" x="0px" y="0px" viewBox="0 0 100 100" enable-background="new 0 0 100 100" xml:space="preserve"><path fill-rule="evenodd" clip-rule="evenodd" d="M31.271,17.76l10.35,7.504c2.767-4.536,6.317-7.254,10.65-8.154l0.8-10.756  c0.033-0.4,0.2-0.734,0.5-1c0.3-0.267,0.667-0.384,1.1-0.351c0.4,0.033,0.733,0.2,1,0.5c0.3,0.3,0.417,0.667,0.35,1.101l-0.7,10.155  c1.333-0.066,2.7,0.033,4.1,0.301c0.4,0.066,0.717,0.267,0.95,0.6c0.233,0.334,0.317,0.717,0.25,1.151  c-0.067,0.4-0.267,0.717-0.6,0.95c-0.333,0.233-0.717,0.317-1.15,0.25c-1.733-0.3-3.383-0.35-4.95-0.15h-0.05  c-4.167,0.533-7.55,3.118-10.15,7.754l-0.3,0.5v0.05c-0.566,1.034-1.033,2.001-1.4,2.902c-4.333,10.706-7.533,17.243-9.6,19.611  l-0.4,0.35c-2.1,2.168-5.783,5.02-11.05,8.555c-1.7,1.134-2.817,2.317-3.35,3.552v0.05c-0.5,1.268-0.383,2.652,0.35,4.152  c0.167,0.367,0.183,0.75,0.05,1.151c-0.133,0.4-0.383,0.7-0.75,0.9l-0.65,0.15c-0.6,0-1.067-0.284-1.4-0.851  c-0.567-1.268-0.883-2.535-0.95-3.802l-6.6,2.401c-0.4,0.133-0.783,0.117-1.15-0.05c-0.367-0.2-0.633-0.483-0.8-0.851  c-0.133-0.4-0.1-0.784,0.1-1.15c0.167-0.367,0.433-0.634,0.8-0.801l8.5-3.001c0.8-1.601,2.2-3.052,4.2-4.352  c4.133-2.802,7.267-5.136,9.4-7.004l-10.1-7.304c-0.333-0.234-0.533-0.567-0.6-1c-0.066-0.4,0.017-0.767,0.25-1.101  c0.267-0.333,0.6-0.533,1-0.6c0.4-0.067,0.767,0.017,1.1,0.25l10.45,7.554c1.9-2.702,4.716-8.688,8.45-17.96  c0.233-0.633,0.533-1.3,0.9-2.001l-10.65-7.704c-0.333-0.267-0.533-0.6-0.6-1c-0.066-0.4,0.017-0.767,0.25-1.101  c0.267-0.333,0.6-0.534,1-0.601C30.571,17.443,30.938,17.526,31.271,17.76z M59.121,28.516c2.267-0.234,4.333,0.3,6.2,1.601  c1.933,1.334,3.083,3.168,3.45,5.503c0.367,2.368-0.133,4.469-1.5,6.303c-1.4,1.968-3.233,3.102-5.5,3.402l-1.4,0.1  c-1.8,0-3.45-0.534-4.95-1.601c-1.867-1.401-3-3.252-3.4-5.553l-0.05-0.95c0-0.401,0.15-0.75,0.45-1.051  c0.267-0.3,0.617-0.45,1.05-0.45c0.4,0,0.75,0.15,1.05,0.45c0.3,0.301,0.45,0.65,0.45,1.051v0.45c0.233,1.501,0.967,2.702,2.2,3.602  c1.267,0.934,2.65,1.268,4.15,1c1.433-0.2,2.6-0.934,3.5-2.201c0.9-1.268,1.233-2.635,1-4.102c-0.267-1.468-1.017-2.635-2.25-3.502  c-1.167-0.901-2.517-1.268-4.05-1.101c-1.233,0.267-2.25,0.833-3.05,1.701c-0.267,0.3-0.617,0.467-1.05,0.5  c-0.4,0-0.767-0.133-1.1-0.4c-0.3-0.267-0.467-0.617-0.5-1.05c0-0.4,0.133-0.767,0.4-1.101c1.267-1.368,2.867-2.235,4.8-2.602  H59.121z M66.821,22.813c-0.367-0.2-0.617-0.5-0.75-0.901c-0.133-0.367-0.1-0.733,0.1-1.1c0.2-0.367,0.5-0.617,0.9-0.75  c0.4-0.133,0.767-0.1,1.1,0.1c0.9,0.467,1.75,0.967,2.55,1.501l6.65-9.155c0.267-0.333,0.6-0.534,1-0.601  c0.4-0.066,0.767,0.017,1.1,0.25c0.333,0.268,0.55,0.601,0.65,1c0.067,0.401-0.033,0.768-0.3,1.101l-6.75,9.305  c3.933,3.602,6.367,8.438,7.3,14.508l11.95-4.353c0.4-0.133,0.783-0.1,1.15,0.101c0.4,0.167,0.667,0.433,0.8,0.8  c0.133,0.4,0.117,0.784-0.05,1.151c-0.2,0.4-0.483,0.667-0.85,0.801l-12.6,4.552c0.333,4.203,0.017,8.188-0.95,11.957l7.8,5.653  c0.333,0.267,0.55,0.6,0.65,1c0.067,0.4-0.033,0.767-0.3,1.101c-0.233,0.333-0.567,0.55-1,0.65c-0.4,0.066-0.767-0.033-1.1-0.301  l-7-5.102c-0.9,2.334-2.083,4.519-3.55,6.553c-0.3,0.4-0.717,0.601-1.25,0.601c-0.367,0-0.65-0.083-0.85-0.25  c-0.333-0.233-0.533-0.567-0.6-1c-0.067-0.4,0.017-0.767,0.25-1.101c1.633-2.201,2.9-4.736,3.8-7.604l0.2-0.75  c0.967-3.669,1.25-7.638,0.85-11.907l-0.05-0.35c-0.767-6.737-3.283-11.839-7.55-15.308C68.92,24.064,67.821,23.347,66.821,22.813z   M58.92,53.279c0.3,2.068-0.15,3.919-1.35,5.554c-1.2,1.701-2.833,2.701-4.9,3.001c-0.433,0.1-0.883,0.15-1.35,0.15  c-1.434,0-2.817-0.467-4.15-1.4c-1.7-1.301-2.7-2.952-3-4.953c-0.3-2.001,0.133-3.835,1.3-5.503c1.233-1.734,2.883-2.751,4.95-3.052  c2-0.367,3.833,0.083,5.5,1.351C57.554,49.627,58.554,51.245,58.92,53.279z M69.471,68.738c-1.533,1.267-3.217,2.468-5.05,3.602  l7.95,5.753c0.333,0.267,0.55,0.6,0.65,1c0.067,0.4-0.033,0.767-0.3,1.101c-0.233,0.333-0.567,0.55-1,0.65  c-0.4,0.067-0.767-0.034-1.1-0.3l-9.05-6.553c-3.167,1.634-6.65,2.935-10.45,3.902l-1.1,15.759c-0.033,0.367-0.183,0.684-0.45,0.951  c-0.3,0.267-0.633,0.4-1,0.4h-0.15c-0.4-0.033-0.733-0.2-1-0.5c-0.267-0.3-0.383-0.667-0.35-1.101l1-14.858  c-1.7,0.3-3.383,0.55-5.05,0.75c-3.8,0.367-7.283,0.367-10.45,0l-8.35,11.557c-0.233,0.333-0.567,0.55-1,0.65  c-0.4,0.067-0.767-0.033-1.1-0.3c-0.333-0.233-0.533-0.566-0.6-1c-0.066-0.4,0.017-0.767,0.25-1.1l7.5-10.406  c-2.767-0.634-5.167-1.567-7.2-2.801c-0.367-0.2-0.6-0.5-0.7-0.9c-0.1-0.434-0.033-0.817,0.2-1.15c0.2-0.367,0.5-0.601,0.9-0.701  c0.433-0.1,0.816-0.033,1.15,0.2c2.333,1.401,5.167,2.351,8.5,2.851c3.167,0.467,6.7,0.518,10.6,0.15  c2.2-0.3,4.417-0.684,6.65-1.151c4.2-0.9,8.067-2.334,11.6-4.302c2.167-1.167,4.35-2.668,6.55-4.502c0.333-0.233,0.7-0.333,1.1-0.3  c0.433,0.033,0.783,0.2,1.05,0.5c0.233,0.333,0.333,0.7,0.3,1.101C69.938,68.121,69.771,68.472,69.471,68.738z M51.621,49.978  l-0.75,0.05c-1.267,0.2-2.25,0.801-2.95,1.801c-0.667,1.034-0.933,2.151-0.8,3.352c0.2,1.201,0.8,2.201,1.8,3.001  c0.967,0.667,2.05,0.901,3.25,0.701c1.3-0.2,2.284-0.8,2.95-1.801c0.733-0.967,1.017-2.085,0.85-3.352  c-0.2-1.201-0.8-2.151-1.8-2.852l-0.05-0.05C53.354,50.261,52.521,49.978,51.621,49.978z M34.721,57.282h0.1  c1.533-0.2,2.95,0.15,4.25,1.051c1.367,1,2.15,2.285,2.35,3.852c0.2,1.567-0.15,3.001-1.05,4.302  c-0.967,1.301-2.217,2.068-3.75,2.301c-0.2,0.033-0.5,0.05-0.9,0.05c-1.233,0-2.383-0.383-3.45-1.151  c-1.267-0.9-2.05-2.135-2.35-3.702v-0.101c-0.2-1.5,0.167-2.901,1.1-4.202C31.954,58.382,33.188,57.582,34.721,57.282z   M34.021,65.236c0.7,0.5,1.4,0.7,2.1,0.601c0.767-0.167,1.367-0.534,1.8-1.101c0.467-0.667,0.65-1.384,0.55-2.151  c-0.1-0.667-0.483-1.268-1.15-1.801c-0.567-0.434-1.267-0.617-2.1-0.55c-0.7,0.133-1.283,0.534-1.75,1.201  c-0.467,0.6-0.667,1.284-0.6,2.051C33.004,64.186,33.387,64.769,34.021,65.236z"></path></svg>